<?xml version="1.0" encoding="UTF-8" standalone="no"?>
<svg
   xmlns:dc="http://purl.org/dc/elements/1.1/"
   xmlns:cc="http://creativecommons.org/ns#"
   xmlns:rdf="http://www.w3.org/1999/02/22-rdf-syntax-ns#"
   xmlns:svg="http://www.w3.org/2000/svg"
   xmlns="http://www.w3.org/2000/svg"
   xmlns:sodipodi="http://sodipodi.sourceforge.net/DTD/sodipodi-0.dtd"
   xmlns:inkscape="http://www.inkscape.org/namespaces/inkscape"
   inkscape:version="1.0 (4035a4fb49, 2020-05-01)"
   sodipodi:docname="comentario.svg"
   id="svg10"
   version="1.1"
   width="682pt"
   viewBox="-21 -47 682.66669 682"
   height="682pt">
  <metadata
     id="metadata16">
    <rdf:RDF>
      <cc:Work
         rdf:about="">
        <dc:format>image/svg+xml</dc:format>
        <dc:type
           rdf:resource="http://purl.org/dc/dcmitype/StillImage" />
      </cc:Work>
    </rdf:RDF>
  </metadata>
  <defs
     id="defs14" />
  <sodipodi:namedview
     inkscape:current-layer="svg10"
     inkscape:window-maximized="1"
     inkscape:window-y="-8"
     inkscape:window-x="-8"
     inkscape:cy="454.66667"
     inkscape:cx="454.66667"
     inkscape:zoom="0.93475073"
     showgrid="false"
     id="namedview12"
     inkscape:window-height="1017"
     inkscape:window-width="1920"
     inkscape:pageshadow="2"
     inkscape:pageopacity="0"
     guidetolerance="10"
     gridtolerance="10"
     objecttolerance="10"
     borderopacity="1"
     bordercolor="#666666"
     pagecolor="#ffffff" />
  <path
     id="path2"
     d="m552.011719-1.332031h-464.023438c-48.515625 0-87.988281 39.464843-87.988281 87.988281v283.972656c0 48.414063 39.300781 87.816406 87.675781 87.988282v128.863281l185.191407-128.863281h279.144531c48.515625 0 87.988281-39.472657 87.988281-87.988282v-283.972656c0-48.523438-39.472656-87.988281-87.988281-87.988281zm50.488281 371.960937c0 27.835938-22.648438 50.488282-50.488281 50.488282h-290.910157l-135.925781 94.585937v-94.585937h-37.1875c-27.839843 0-50.488281-22.652344-50.488281-50.488282v-283.972656c0-27.84375 22.648438-50.488281 50.488281-50.488281h464.023438c27.839843 0 50.488281 22.644531 50.488281 50.488281zm0 0" />
  <path
     id="path4"
     d="m171.292969 131.171875h297.414062v37.5h-297.414062zm0 0" />
  <path
     id="path841"
     d="m 170.94982,160.34715 v -18.87372 h 148.98196 148.98197 v 18.87372 18.87373 H 319.93178 170.94982 Z"
     style="fill:#ff9900;stroke:#ff9900;stroke-width:37.5367;stroke-linecap:round;stroke-linejoin:round;stroke-miterlimit:4;stroke-dasharray:none" />
  <path
     id="path843"
     d="m 170.94982,291.71086 v -18.87373 h 148.98196 148.98197 v 18.87373 18.87373 H 319.93178 170.94982 Z"
     style="fill:#ff9900;stroke:#ff9900;stroke-width:37.5367;stroke-linecap:round;stroke-linejoin:round;stroke-miterlimit:4;stroke-dasharray:none" />
  <path
     id="path847"
     d="m 87.423536,522.89413 v -64.25098 h -3.926965 c -2.15983,0 -6.948539,-0.55847 -10.641568,-1.24107 C 54.735705,454.05307 39.88636,446.37181 26.591499,433.47092 15.175835,422.39354 6.8617435,408.18151 2.4510773,392.20551 L 0.28313851,384.35296 V 228.54432 72.735684 L 2.4365025,64.940581 C 10.377388,36.194865 31.789666,12.816049 58.60138,3.6174347 c 14.902895,-5.1129156 -7.653147,-4.6750692 256.51158,-4.9792648 175.31114,-0.2018774 242.15588,-0.031178 247.61268,0.63233429 10.66912,1.2972902 17.77234,3.43955391 27.86342,8.40333861 10.40699,5.1191872 17.28104,10.1491502 25.05638,18.3345532 12.26471,12.911563 20.18382,28.445937 23.15774,45.426996 1.7795,10.160993 1.76833,304.106278 -0.0119,314.315178 -5.42836,31.12849 -27.87921,57.57433 -57.74249,68.01739 -14.61398,5.11044 -6.68356,4.87519 -164.34807,4.87519 H 273.1403 l -92.25603,64.22831 c -50.74082,35.32558 -92.527085,64.23852 -92.858383,64.25099 -0.331291,0.0125 -0.602351,-28.89027 -0.602351,-64.22832 z m 106.185224,-55.01489 67.52546,-46.98354 147.86153,-0.014 c 126.71271,-0.0119 148.66565,-0.18219 153.4835,-1.19024 14.33433,-2.9992 27.50335,-13.0488 33.93319,-25.89524 6.30827,-12.60352 5.89477,-0.32047 5.64421,-167.66137 L 601.83298,76.751386 600.04718,71.53099 C 594.72245,55.965258 582.80795,44.03243 567.36105,38.794549 l -6.48808,-2.200031 H 320.33336 79.79373 L 72.84405,38.8727 C 54.491146,44.888979 41.710776,59.723399 38.455912,78.787675 37.825538,82.479871 37.636083,126.78259 37.800038,232.15845 l 0.230553,148.17883 1.785796,5.22039 c 5.296866,15.48426 17.827966,27.998 33.150678,33.10474 4.769933,1.58971 7.24745,1.76662 28.712155,2.0502 l 23.49177,0.31037 v 46.9199 c 0,25.80595 0.20527,46.9199 0.45616,46.9199 0.25089,0 30.84262,-21.14259 67.98161,-46.98353 z"
     style="fill:#ff9900;stroke:#ff9900;stroke-width:37.5367;stroke-linecap:round;stroke-linejoin:round;stroke-miterlimit:4;stroke-dasharray:none" />
</svg>
