<?xml version="1.0" encoding="UTF-8" standalone="no"?>
<svg
   xmlns:dc="http://purl.org/dc/elements/1.1/"
   xmlns:cc="http://creativecommons.org/ns#"
   xmlns:rdf="http://www.w3.org/1999/02/22-rdf-syntax-ns#"
   xmlns:svg="http://www.w3.org/2000/svg"
   xmlns="http://www.w3.org/2000/svg"
   xmlns:sodipodi="http://sodipodi.sourceforge.net/DTD/sodipodi-0.dtd"
   xmlns:inkscape="http://www.inkscape.org/namespaces/inkscape"
   inkscape:version="1.0 (4035a4fb49, 2020-05-01)"
   height="535.98541"
   width="536.21515"
   sodipodi:docname="exit.svg"
   xml:space="preserve"
   viewBox="0 0 536.21515 535.98541"
   y="0px"
   x="0px"
   id="Capa_1"
   version="1.1"><metadata
   id="metadata47"><rdf:RDF><cc:Work
       rdf:about=""><dc:format>image/svg+xml</dc:format><dc:type
         rdf:resource="http://purl.org/dc/dcmitype/StillImage" /><dc:title></dc:title></cc:Work></rdf:RDF></metadata><defs
   id="defs45"><marker
     inkscape:isstock="true"
     style="overflow:visible"
     id="Arrow1Lstart"
     refX="0.0"
     refY="0.0"
     orient="auto"
     inkscape:stockid="Arrow1Lstart"><path
       transform="scale(0.8) translate(12.5,0)"
       style="fill-rule:evenodd;stroke:#000000;stroke-width:1.0pt"
       d="M 0.0,0.0 L 5.0,-5.0 L -12.5,0.0 L 5.0,5.0 L 0.0,0.0 z "
       id="path880" /></marker></defs><sodipodi:namedview
   inkscape:current-layer="Capa_1"
   inkscape:window-maximized="1"
   inkscape:window-y="-8"
   inkscape:window-x="-8"
   inkscape:cy="268.00626"
   inkscape:cx="267.99525"
   inkscape:zoom="1.6601562"
   fit-margin-bottom="2"
   fit-margin-right="2"
   fit-margin-left="2"
   fit-margin-top="2"
   lock-margins="true"
   showgrid="false"
   id="namedview43"
   inkscape:window-height="1017"
   inkscape:window-width="1920"
   inkscape:pageshadow="2"
   inkscape:pageopacity="0"
   guidetolerance="10"
   gridtolerance="10"
   objecttolerance="10"
   borderopacity="1"
   bordercolor="#666666"
   pagecolor="#ffffff" />
<g
   transform="translate(11.995253,12.006265)"
   id="g10">
	<g
   id="g8">
		<g
   id="g6">
			<path
   id="path2"
   d="m 330.667,384 h -21.333 c -5.891,0 -10.667,4.776 -10.667,10.667 v 74.667 h -256 V 42.667 h 256 v 74.667 c 0,5.891 4.776,10.667 10.667,10.667 h 21.333 c 5.891,0 10.667,-4.776 10.667,-10.667 V 42.667 C 341.333,19.103 322.231,0 298.667,0 h -256 C 19.103,0 0,19.103 0,42.667 V 469.334 C 0,492.898 19.103,512 42.667,512 h 256 c 23.564,0 42.667,-19.102 42.667,-42.667 V 394.666 C 341.333,388.776 336.558,384 330.667,384 Z" />
			<path
   id="path4"
   d="m 508.542,248.135 -128,-117.333 c -3.125,-2.844 -7.656,-3.625 -11.5,-1.896 -3.875,1.698 -6.375,5.531 -6.375,9.76 V 160 c 0,3.021 1.281,5.906 3.531,7.927 l 74.151,66.74 H 138.667 c -5.896,0 -10.667,4.771 -10.667,10.667 v 21.333 c 0,5.896 4.771,10.667 10.667,10.667 h 301.682 l -74.151,66.74 c -2.25,2.021 -3.531,4.906 -3.531,7.927 v 21.333 c 0,4.229 2.5,8.063 6.375,9.76 1.375,0.615 2.844,0.906 4.292,0.906 2.615,0 5.198,-0.969 7.208,-2.802 l 128,-117.333 C 510.75,261.844 512,258.99 512,256 c 0,-2.99 -1.25,-5.844 -3.458,-7.865 z" />
		</g>
	</g>
</g>
<g
   transform="translate(11.995253,12.006265)"
   id="g12">
</g>
<g
   transform="translate(11.995253,12.006265)"
   id="g14">
</g>
<g
   transform="translate(11.995253,12.006265)"
   id="g16">
</g>
<g
   transform="translate(11.995253,12.006265)"
   id="g18">
</g>
<g
   transform="translate(11.995253,12.006265)"
   id="g20">
</g>
<g
   transform="translate(11.995253,12.006265)"
   id="g22">
</g>
<g
   transform="translate(11.995253,12.006265)"
   id="g24">
</g>
<g
   transform="translate(11.995253,12.006265)"
   id="g26">
</g>
<g
   transform="translate(11.995253,12.006265)"
   id="g28">
</g>
<g
   transform="translate(11.995253,12.006265)"
   id="g30">
</g>
<g
   transform="translate(11.995253,12.006265)"
   id="g32">
</g>
<g
   transform="translate(11.995253,12.006265)"
   id="g34">
</g>
<g
   transform="translate(11.995253,12.006265)"
   id="g36">
</g>
<g
   transform="translate(11.995253,12.006265)"
   id="g38">
</g>
<g
   transform="translate(11.995253,12.006265)"
   id="g40">
</g>
<g
   style="stroke-width:20;stroke-miterlimit:4;stroke-dasharray:none;fill:#ff9900;fill-opacity:1;stroke:#ff9900;stroke-opacity:1"
   transform="translate(131.72053,131.89816)"
   id="g878"><path
     style="fill:#ff9900;stroke:#ff9900;stroke-width:20;stroke-linecap:round;stroke-linejoin:round;stroke-miterlimit:4;stroke-dasharray:none;fill-opacity:1;stroke-opacity:1"
     d="m -86.595868,391.17384 c -2.153412,-0.46117 -6.489658,-2.11107 -9.636103,-3.66644 -4.726869,-2.33662 -6.619379,-3.72652 -10.892739,-7.99987 -4.27741,-4.27741 -5.66036,-6.16138 -7.99598,-10.89274 -5.01545,-10.15998 -4.58243,11.7883 -4.59413,-232.8621 -0.0103,-215.587058 0.006,-218.774518 1.17526,-223.344472 3.82649,-14.961438 16.15296,-27.287908 31.114399,-31.114398 4.542828,-1.16186 7.319602,-1.18572 137.992621,-1.18572 148.71203,0 137.35443,-0.32706 146.84608,4.22868 8.70603,4.17866 15.62267,10.98237 19.81905,19.495449 4.38782,8.901464 4.21809,6.874737 4.44497,53.07587 0.13768,28.03625 -0.003,42.2694104 -0.43301,43.7349704 -0.76435,2.60646 -4.03164,5.95702 -6.78,6.95277 -2.51866,0.91253 -24.57424,1.05937 -27.72407,0.18457 -2.8714,-0.79746 -5.82955,-3.29186 -6.87707,-5.79896 -0.66491,-1.59133 -0.82163,-9.32347 -0.82163,-40.5363554 v -38.569936 h -128 -128.000001 V 136.1081 349.34104 h 128.000001 128 v -38.56993 c 0,-31.21289 0.15672,-38.94503 0.82163,-40.53636 1.04752,-2.5071 4.00567,-5.0015 6.87707,-5.79896 3.14983,-0.8748 25.20541,-0.72796 27.72407,0.18457 2.74836,0.99575 6.01565,4.34631 6.78,6.95277 0.43027,1.46728 0.56707,15.66581 0.42137,43.73497 -0.23972,46.18107 -0.0679,44.13035 -4.44761,53.07587 -4.1554,8.48731 -11.08799,15.31163 -19.80477,19.49545 -9.49711,4.55836 1.88444,4.2342 -146.79185,4.18079 -111.484687,-0.0401 -133.94308,-0.18512 -137.217558,-0.88637 z"
     id="path872" /><path
     style="fill:#ff9900;stroke:#ff9900;stroke-width:20;stroke-linecap:round;stroke-linejoin:round;stroke-miterlimit:4;stroke-dasharray:none;fill-opacity:1;stroke-opacity:1"
     d="m 250.5961,263.8139 c -2.66194,-0.80242 -5.24304,-2.96392 -6.51384,-5.45489 -1.07911,-2.11522 -1.19107,-3.5737 -1.19107,-15.5157 0,-12.53715 0.0662,-13.30146 1.35529,-15.64643 0.93331,-1.69777 12.94582,-12.8866 38.58013,-35.93474 l 37.22482,-33.46933 -150.76835,-0.003 C 67.4314,157.78781 17.78792,157.58461 16.2746,157.16431 13.27821,156.33214 10.45518,153.86177 9.10576,150.89104 8.14811,148.78276 8,146.80278 8,136.10847 8,125.41416 8.14811,123.43418 9.10576,121.3259 c 1.34942,-2.97073 4.17245,-5.4411 7.16884,-6.27327 1.51332,-0.4203 51.1568,-0.62324 153.00848,-0.6255 l 150.76835,-0.003 -37.22482,-33.469331 c -25.63431,-23.04814 -37.64682,-34.23697 -38.58013,-35.93474 -1.28908,-2.34497 -1.35529,-3.10928 -1.35529,-15.64643 0,-12.03528 0.10575,-13.38831 1.2166,-15.56576 2.46531,-4.8323996 8.51454,-7.0847096 13.30943,-4.9554896 3.57021,1.5853896 132.46022,119.6760506 133.87541,122.6583406 1.25508,2.64488 1.25508,6.55136 0,9.19624 -1.31234,2.76555 -130.26027,121.03737 -133.64379,122.57888 -2.57854,1.17477 -4.44547,1.31475 -7.05274,0.5288 z"
     id="path874" /></g></svg>
