<?xml version="1.0" encoding="UTF-8" standalone="no"?>
<svg
   xmlns:dc="http://purl.org/dc/elements/1.1/"
   xmlns:cc="http://creativecommons.org/ns#"
   xmlns:rdf="http://www.w3.org/1999/02/22-rdf-syntax-ns#"
   xmlns:svg="http://www.w3.org/2000/svg"
   xmlns="http://www.w3.org/2000/svg"
   xmlns:sodipodi="http://sodipodi.sourceforge.net/DTD/sodipodi-0.dtd"
   xmlns:inkscape="http://www.inkscape.org/namespaces/inkscape"
   inkscape:version="1.0 (4035a4fb49, 2020-05-01)"
   height="61.230564"
   width="61.206264"
   sodipodi:docname="user-face.svg"
   xml:space="preserve"
   viewBox="0 0 61.206264 61.230564"
   y="0px"
   x="0px"
   id="Capa_1"
   version="1.1"><metadata
   id="metadata39"><rdf:RDF><cc:Work
       rdf:about=""><dc:format>image/svg+xml</dc:format><dc:type
         rdf:resource="http://purl.org/dc/dcmitype/StillImage" /><dc:title></dc:title></cc:Work></rdf:RDF></metadata><defs
   id="defs37" /><sodipodi:namedview
   inkscape:current-layer="Capa_1"
   inkscape:window-maximized="1"
   inkscape:window-y="-8"
   inkscape:window-x="-8"
   inkscape:cy="35.501287"
   inkscape:cx="23.784961"
   inkscape:zoom="11.313709"
   fit-margin-bottom="2"
   fit-margin-right="2"
   fit-margin-left="2"
   fit-margin-top="2"
   lock-margins="true"
   showgrid="false"
   id="namedview35"
   inkscape:window-height="1017"
   inkscape:window-width="1920"
   inkscape:pageshadow="2"
   inkscape:pageopacity="0"
   guidetolerance="10"
   gridtolerance="10"
   objecttolerance="10"
   borderopacity="1"
   bordercolor="#666666"
   pagecolor="#ffffff" />
<path
   id="path2"
   d="m 58.089383,30.612533 c 0,-15.163 -12.337,-27.5 -27.5,-27.5 -15.163,0 -27.4999999,12.337 -27.4999999,27.5 0,8.009 3.444,15.228 8.9259999,20.258 l -0.026,0.023 0.892,0.752 c 0.058,0.049 0.121,0.089 0.179,0.137 0.474,0.393 0.965,0.766 1.465,1.127 0.162,0.117 0.324,0.234 0.489,0.348 0.534,0.368 1.082,0.717 1.642,1.048 0.122,0.072 0.245,0.142 0.368,0.212 0.613,0.349 1.239,0.678 1.88,0.98 0.047,0.022 0.095,0.042 0.142,0.064 2.089,0.971 4.319,1.684 6.651,2.105 0.061,0.011 0.122,0.022 0.184,0.033 0.724,0.125 1.456,0.225 2.197,0.292 0.09,0.008 0.18,0.013 0.271,0.021 0.738,0.061 1.484,0.1 2.24,0.1 0.749,0 1.488,-0.039 2.222,-0.098 0.093,-0.008 0.186,-0.013 0.279,-0.021 0.735,-0.067 1.461,-0.164 2.178,-0.287 0.062,-0.011 0.125,-0.022 0.187,-0.034 2.297,-0.412 4.495,-1.109 6.557,-2.055 0.076,-0.035 0.153,-0.068 0.229,-0.104 0.617,-0.29 1.22,-0.603 1.811,-0.936 0.147,-0.083 0.293,-0.167 0.439,-0.253 0.538,-0.317 1.067,-0.648 1.581,-1 0.185,-0.126 0.366,-0.259 0.549,-0.391 0.439,-0.316 0.87,-0.642 1.289,-0.983 0.093,-0.075 0.193,-0.14 0.284,-0.217 l 0.915,-0.764 -0.027,-0.023 c 5.53,-5.032 9.007,-12.284 9.007,-20.334 z m -52.9999999,0 c 0,-14.061 11.4389999,-25.5 25.4999999,-25.5 14.061,0 25.5,11.439 25.5,25.5 0,7.577 -3.325,14.389 -8.589,19.063 -0.294,-0.203 -0.59,-0.385 -0.893,-0.537 l -8.467,-4.233 c -0.76,-0.38 -1.232,-1.144 -1.232,-1.993 v -2.957 c 0.196,-0.242 0.403,-0.516 0.617,-0.817 1.096,-1.548 1.975,-3.27 2.616,-5.123 1.267,-0.602 2.085,-1.864 2.085,-3.289 v -3.545 c 0,-0.867 -0.318,-1.708 -0.887,-2.369 v -4.667 c 0.052,-0.52 0.236,-3.448 -1.883,-5.864 -1.843,-2.104 -4.826,-3.169 -8.867,-3.169 -4.041,0 -7.024,1.065 -8.867,3.168 -2.119,2.416 -1.935,5.346 -1.883,5.864 v 4.667 c -0.568,0.661 -0.887,1.502 -0.887,2.369 v 3.545 c 0,1.101 0.494,2.128 1.34,2.821 0.81,3.173 2.477,5.575 3.093,6.389 v 2.894 c 0,0.816 -0.445,1.566 -1.162,1.958 l -7.907,4.313 c -0.252,0.137 -0.502,0.297 -0.752,0.476 -5.1989999,-4.672 -8.4749999,-11.442 -8.4749999,-18.964 z" />
<g
   transform="translate(3.0893831,3.112533)"
   id="g4">
</g>
<g
   transform="translate(3.0893831,3.112533)"
   id="g6">
</g>
<g
   transform="translate(3.0893831,3.112533)"
   id="g8">
</g>
<g
   transform="translate(3.0893831,3.112533)"
   id="g10">
</g>
<g
   transform="translate(3.0893831,3.112533)"
   id="g12">
</g>
<g
   transform="translate(3.0893831,3.112533)"
   id="g14">
</g>
<g
   transform="translate(3.0893831,3.112533)"
   id="g16">
</g>
<g
   transform="translate(3.0893831,3.112533)"
   id="g18">
</g>
<g
   transform="translate(3.0893831,3.112533)"
   id="g20">
</g>
<g
   transform="translate(3.0893831,3.112533)"
   id="g22">
</g>
<g
   transform="translate(3.0893831,3.112533)"
   id="g24">
</g>
<g
   transform="translate(3.0893831,3.112533)"
   id="g26">
</g>
<g
   transform="translate(3.0893831,3.112533)"
   id="g28">
</g>
<g
   transform="translate(3.0893831,3.112533)"
   id="g30">
</g>
<g
   transform="translate(3.0893831,3.112533)"
   id="g32">
</g>
<path
   id="path864"
   d="M 28.842324,58.068808 C 21.870566,57.563216 15.604827,54.658223 10.866513,49.734659 9.4814715,48.295469 8.727585,47.366177 7.7157106,45.850768 5.1792153,42.052047 3.7087244,37.979766 3.2062382,33.362533 3.0753332,32.159677 3.0964415,28.749369 3.2422832,27.539004 3.644688,24.199377 4.5855042,21.060781 6.037557,18.213873 9.9985899,10.447835 17.349885,4.9946982 25.865854,3.5053877 c 1.685183,-0.2947125 2.527867,-0.3586648 4.723529,-0.3584745 2.252872,1.953e-4 3.133831,0.070703 4.917647,0.3935837 7.92604,1.4346583 14.892938,6.3664275 18.956576,13.4190951 1.857008,3.222938 2.985604,6.669293 3.475091,10.611765 0.165686,1.33449 0.165699,4.747947 2.3e-5,6.081707 -0.168166,1.353799 -0.335888,2.285354 -0.625912,3.476402 -1.658641,6.811578 -5.903729,12.761454 -11.841072,16.596336 -3.888409,2.511492 -8.182874,3.94977 -12.902044,4.32108 -0.761377,0.05991 -3.020409,0.07319 -3.727368,0.02193 z M 48.640631,48.552239 C 51.752145,45.409794 53.936755,41.688537 55.113197,37.526895 57.19594,30.159233 55.817979,22.137707 51.402239,15.924298 50.574871,14.760104 49.735073,13.77695 48.579989,12.620281 46.48557,10.522988 44.516818,9.0991434 41.912912,7.7985031 39.194221,6.4405279 36.582642,5.6732309 33.30703,5.2700443 32.060797,5.1166488 29.143394,5.1174939 27.871736,5.2716188 23.971385,5.7443412 20.595012,6.885085 17.421736,8.8022632 14.48956,10.573777 11.747927,13.13949 9.7076586,16.021357 5.1083995,22.517781 3.8735863,31.024841 6.4204021,38.668415 c 1.0246126,3.075096 2.7562618,6.126939 4.8463509,8.541166 0.637973,0.736912 2.191077,2.29707 2.286683,2.29707 0.04427,0 0.233926,-0.09669 0.421455,-0.214878 0.187529,-0.118182 2.160589,-1.202814 4.384576,-2.410294 4.472243,-2.428134 4.572634,-2.495026 4.847663,-3.230109 0.124391,-0.332465 0.135194,-0.495783 0.135194,-2.043843 v -1.682503 l -0.581649,-0.8779 c -0.958476,-1.446655 -1.843413,-3.314314 -2.306838,-4.868579 -0.159432,-0.534713 -0.221171,-0.64918 -0.515183,-0.955175 -0.401878,-0.418257 -0.763959,-1.083162 -0.896848,-1.646921 -0.139895,-0.593475 -0.141489,-4.627636 -0.0021,-5.218992 0.103556,-0.439213 0.373974,-1.014763 0.645724,-1.374336 l 0.171157,-0.22647 -0.01452,-3.138236 c -0.01281,-2.768872 -0.0013,-3.199161 0.09747,-3.655882 0.562814,-2.601402 2.004402,-4.462396 4.338367,-5.600541 1.805288,-0.880339 3.640473,-1.241263 6.311439,-1.241263 2.731921,0 4.690058,0.398014 6.479005,1.316934 1.89074,0.971207 3.226747,2.504782 3.871567,4.444094 0.406983,1.224009 0.412646,1.291627 0.396707,4.736658 l -0.01452,3.138236 0.171156,0.22647 c 0.27175,0.359573 0.542168,0.935123 0.645724,1.374336 0.139426,0.591356 0.137832,4.625517 -0.0021,5.218992 -0.208732,0.885505 -0.943631,1.887846 -1.664533,2.270283 -0.292299,0.155065 -0.306032,0.17676 -0.634183,1.001855 -0.354094,0.890321 -0.926504,2.080466 -1.368023,2.844368 -0.292801,0.506592 -1.146139,1.776007 -1.390638,2.068693 l -0.156504,0.187351 0.01992,1.755466 0.01992,1.755466 0.213011,0.432409 c 0.12755,0.258922 0.322254,0.52667 0.485294,0.667353 0.170535,0.14715 1.976946,1.089837 4.834047,2.522679 2.508971,1.258253 4.649118,2.345445 4.755883,2.415981 0.106765,0.07054 0.221615,0.130378 0.255223,0.132979 0.03361,0.0026 0.544026,-0.48299 1.134261,-1.079093 z"
   style="fill:#ff9900;fill-opacity:1;stroke:#000000;stroke-width:0.258824;stroke-linecap:round;stroke-linejoin:round" /><path
   id="path866"
   d="M 27.979645,58.144031 C 20.850553,57.370426 14.705576,54.246626 9.9842323,48.996059 6.571024,45.200259 4.241468,40.423134 3.3545147,35.400768 3.0331321,33.580941 3.0001329,33.144274 3.0000003,30.709592 2.999867,28.262397 3.0404105,27.671224 3.3217284,26.018415 4.1462011,21.174444 6.2372975,16.662213 9.4239913,12.850768 10.108387,12.032197 11.661281,10.458297 12.504089,9.7290052 c 4.272443,-3.6969933 9.493336,-5.9821963 15.141176,-6.627346 0.947561,-0.1082393 4.936631,-0.1085478 5.888236,-4.555e-4 2.406802,0.2733877 4.937658,0.9023956 7.228081,1.7964356 1.46981,0.5737235 3.720223,1.7586094 5.130742,2.701435 3.369071,2.2519694 6.381658,5.4234067 8.457742,8.9037097 1.971479,3.304945 3.183038,6.865561 3.7173,10.92466 0.136847,1.039706 0.157655,5.117417 0.03128,6.129207 -0.694589,5.560912 -2.613521,10.145616 -6.052986,14.461764 -0.841733,1.056282 -3.013652,3.221715 -4.100746,4.088499 -4.217484,3.362771 -8.809461,5.289289 -14.249645,5.978295 -1.137484,0.144064 -4.60155,0.179714 -5.71562,0.05882 z m 20.460957,-9.60943 c 4.167407,-4.18911 6.60305,-9.217936 7.332713,-15.139715 0.134204,-1.089173 0.112879,-4.733723 -0.03408,-5.823529 C 55.082131,22.698283 53.304378,18.47445 50.360956,14.79288 49.723649,13.995752 47.874356,12.101377 46.965302,11.31445 44.107181,8.840302 40.417297,6.9442762 36.671736,6.025159 35.541074,5.7477079 33.827222,5.461789 32.756701,5.3720209 31.383919,5.2569069 28.346731,5.329853 27.192324,5.5056642 22.433782,6.2303693 18.413359,7.942976 14.921449,10.732771 9.7084312,14.897613 6.4508042,20.542359 5.5211787,27.021357 c -0.3194211,2.226196 -0.309517,5.231872 0.024307,7.37647 0.6933417,4.454267 2.5323224,8.631831 5.3264693,12.1 0.707211,0.87781 2.563371,2.814706 2.697379,2.814706 0.04253,0 0.620979,-0.302032 1.28545,-0.671182 0.66447,-0.369151 2.314599,-1.274643 3.666952,-2.012205 3.871365,-2.111409 4.255048,-2.361433 4.514651,-2.94193 0.118977,-0.266045 0.134978,-0.461956 0.161654,-1.979261 l 0.02961,-1.683989 -0.48365,-0.742481 c -1.00805,-1.547516 -1.783948,-3.135661 -2.345109,-4.800074 -0.225146,-0.66779 -0.331679,-0.886636 -0.566967,-1.164706 -0.38482,-0.454789 -0.606764,-0.819119 -0.814702,-1.337364 l -0.171958,-0.428573 v -2.588235 -2.588235 l 0.198491,-0.488899 c 0.10917,-0.268894 0.305714,-0.650437 0.436765,-0.847874 l 0.238274,-0.358975 v -3.202849 -3.20285 l 0.167822,-0.665506 c 0.22428,-0.889393 0.575334,-1.743069 1.001799,-2.436129 0.431908,-0.701906 1.566558,-1.87129 2.249623,-2.318489 1.460479,-0.956168 3.314781,-1.57762 5.306729,-1.7785 0.868537,-0.08759 3.429755,-0.08697 4.28923,0.001 1.540801,0.157772 2.934916,0.535361 4.164209,1.127852 1.825591,0.879894 3.257453,2.363365 3.982432,4.12597 0.548935,1.334597 0.535684,1.218853 0.57587,5.030504 l 0.03581,3.397059 0.239951,0.350313 c 0.131973,0.192672 0.321238,0.571202 0.420588,0.841176 l 0.180638,0.490861 v 2.523531 c 0,2.497178 -0.0016,2.527922 -0.154055,2.944118 -0.292166,0.797651 -0.986422,1.686175 -1.597174,2.0441 -0.254639,0.149228 -0.303006,0.223152 -0.580525,0.887286 -0.761279,1.821839 -1.538144,3.239742 -2.506346,4.574496 l -0.445895,0.614706 0.04271,1.743993 c 0.04575,1.868252 0.04076,1.840041 0.424623,2.401311 0.139159,0.203473 0.345665,0.352851 0.91296,0.660399 0.853647,0.462788 8.993103,4.599062 9.061822,4.604999 0.02549,0.0022 0.452537,-0.404301 0.94899,-0.90334 z"
   style="fill:#ff9900;fill-opacity:1;stroke:#ff9900;stroke-width:2;stroke-linecap:round;stroke-linejoin:round;stroke-miterlimit:4;stroke-dasharray:none;stroke-opacity:1" /></svg>
