<?xml version="1.0" encoding="UTF-8" standalone="no"?>
<svg
   xmlns:dc="http://purl.org/dc/elements/1.1/"
   xmlns:cc="http://creativecommons.org/ns#"
   xmlns:rdf="http://www.w3.org/1999/02/22-rdf-syntax-ns#"
   xmlns:svg="http://www.w3.org/2000/svg"
   xmlns="http://www.w3.org/2000/svg"
   xmlns:sodipodi="http://sodipodi.sourceforge.net/DTD/sodipodi-0.dtd"
   xmlns:inkscape="http://www.inkscape.org/namespaces/inkscape"
   height="410.78436"
   width="395.1326"
   inkscape:version="1.0 (4035a4fb49, 2020-05-01)"
   sodipodi:docname="editar.svg"
   xml:space="preserve"
   viewBox="0 0 395.13261 410.78438"
   y="0px"
   x="0px"
   id="Capa_1"
   version="1.1"><metadata
   id="metadata47"><rdf:RDF><cc:Work
       rdf:about=""><dc:format>image/svg+xml</dc:format><dc:type
         rdf:resource="http://purl.org/dc/dcmitype/StillImage" /><dc:title></dc:title></cc:Work></rdf:RDF></metadata><defs
   id="defs45" /><sodipodi:namedview
   fit-margin-bottom="2"
   fit-margin-right="2"
   fit-margin-left="2"
   lock-margins="true"
   fit-margin-top="2"
   inkscape:current-layer="Capa_1"
   inkscape:window-maximized="1"
   inkscape:window-y="-8"
   inkscape:window-x="1912"
   inkscape:cy="241.88406"
   inkscape:cx="197.56631"
   inkscape:zoom="2.1985697"
   showgrid="false"
   id="namedview43"
   inkscape:window-height="1017"
   inkscape:window-width="1920"
   inkscape:pageshadow="2"
   inkscape:pageopacity="0"
   guidetolerance="10"
   gridtolerance="10"
   objecttolerance="10"
   borderopacity="1"
   bordercolor="#666666"
   pagecolor="#ffffff" />
<g
   transform="translate(4.2588136,12.189268)"
   id="g10">
	<g
   id="g8">
		<g
   id="g6">
			<path
   id="path2"
   d="m 36.573,309.292 h 2.09 l 100.833,-21.943 c 1.964,-0.327 3.784,-1.237 5.224,-2.612 L 315.56,113.896 C 328.04,101.443 335.003,84.505 334.891,66.876 334.914,49.11 327.974,32.043 315.56,19.333 303.108,6.853 286.17,-0.11 268.54,0.003 250.798,-0.154 233.78,7.031 221.52,19.856 L 51.201,190.696 c -1.502,1.209 -2.597,2.85 -3.135,4.702 L 26.124,296.231 c -0.599,3.62 0.565,7.308 3.135,9.927 1.929,1.968 4.558,3.095 7.314,3.134 z M 268.54,20.901 c 25.103,-0.002 45.454,20.347 45.456,45.45 0,0.175 -10e-4,0.35 -0.003,0.525 0.171,11.959 -4.547,23.47 -13.061,31.869 L 236.671,33.961 c 8.466,-8.413 19.933,-13.113 31.869,-13.06 z M 222.042,49.113 286.303,113.374 137.405,261.749 73.144,198.01 Z M 64.785,218.909 116.507,270.631 50.156,285.26 Z" />
			<path
   id="path4"
   d="M 368.328,365.717 H 18.287 c -5.771,0 -10.449,4.678 -10.449,10.449 0,5.771 4.678,10.449 10.449,10.449 h 350.041 c 5.771,0 10.449,-4.678 10.449,-10.449 0,-5.771 -4.678,-10.449 -10.449,-10.449 z" />
		</g>
	</g>
</g>
<g
   transform="translate(4.2588136,12.189268)"
   id="g12">
</g>
<g
   transform="translate(4.2588136,12.189268)"
   id="g14">
</g>
<g
   transform="translate(4.2588136,12.189268)"
   id="g16">
</g>
<g
   transform="translate(4.2588136,12.189268)"
   id="g18">
</g>
<g
   transform="translate(4.2588136,12.189268)"
   id="g20">
</g>
<g
   transform="translate(4.2588136,12.189268)"
   id="g22">
</g>
<g
   transform="translate(4.2588136,12.189268)"
   id="g24">
</g>
<g
   transform="translate(4.2588136,12.189268)"
   id="g26">
</g>
<g
   transform="translate(4.2588136,12.189268)"
   id="g28">
</g>
<g
   transform="translate(4.2588136,12.189268)"
   id="g30">
</g>
<g
   transform="translate(4.2588136,12.189268)"
   id="g32">
</g>
<g
   transform="translate(4.2588136,12.189268)"
   id="g34">
</g>
<g
   transform="translate(4.2588136,12.189268)"
   id="g36">
</g>
<g
   transform="translate(4.2588136,12.189268)"
   id="g38">
</g>
<g
   transform="translate(4.2588136,12.189268)"
   id="g40">
</g>
<g
   transform="translate(4.2588136,12.189268)"
   id="g886"><path
     style="fill:#ff9900;stroke:#ff9900;stroke-width:20;stroke-linecap:round;stroke-linejoin:round;stroke-miterlimit:4;stroke-dasharray:none"
     d="m 32.521143,308.44102 c -3.645221,-1.66497 -6.15865,-5.30248 -6.483374,-9.38295 -0.138993,-1.74659 2.364239,-13.9875 10.789592,-52.76158 6.033815,-27.76805 11.281524,-51.20374 11.661575,-52.07931 0.448796,-1.03395 31.968714,-32.94602 89.925034,-91.04383 80.99609,-81.19383 89.62582,-89.707757 93.47786,-92.223549 7.32825,-4.7861301 15.22642,-8.0801772 23.7289,-9.8964889 5.54322,-1.18414779 20.4401,-1.17164976 25.92595,0.021751 13.521,2.9413784 24.4843,8.8069998 33.66309,18.0105369 10.35479,10.382714 16.83858,23.367208 19.08728,38.224387 0.76184,5.03344 0.64915,15.530451 -0.22293,20.766037 -1.86622,11.20408 -7.00599,22.420506 -14.34884,31.313276 -1.44594,1.75114 -41.78994,42.30675 -89.65335,90.12359 -67.65221,67.58638 -87.37876,87.04811 -88.61633,87.42673 -4.91966,1.50509 -102.601255,22.35102 -104.69384,22.34238 -1.357182,-0.006 -3.22081,-0.37519 -4.240617,-0.84098 z m 51.624473,-30.74847 c 16.635814,-3.65088 30.606824,-6.78456 31.046684,-6.96372 0.63937,-0.26043 -4.33158,-5.45595 -24.788843,-25.90868 l -25.588591,-25.58292 -7.175363,32.63296 c -3.94645,17.94813 -7.170137,32.76471 -7.163749,32.92574 0.0064,0.16103 0.77916,0.12219 1.71727,-0.0863 0.93811,-0.2085 15.316776,-3.36618 31.952592,-7.01707 z M 211.78066,187.52076 286.11928,113.50786 254.04094,81.429522 221.96261,49.35119 147.6397,123.67305 73.316789,197.99492 105.2257,229.74478 c 17.5499,17.46242 31.97808,31.75863 32.06263,31.76937 0.0845,0.0107 33.60609,-33.28629 74.49233,-73.99339 z m 94.44011,-95.361375 c 2.48984,-3.65625 5.08099,-9.329598 6.25677,-13.699284 1.38214,-5.136603 1.71069,-14.068769 0.72519,-19.715682 -4.56713,-26.169723 -30.21207,-42.780306 -55.96304,-36.248036 -6.9414,1.760828 -15.26498,6.217616 -19.1126,10.233664 l -1.30101,1.357963 32.02567,32.269864 32.02568,32.269866 1.76085,-1.896679 c 0.96848,-1.043173 2.58059,-3.100429 3.58249,-4.571676 z"
     id="path880" /><path
     style="fill:#ff9900;stroke:#ff9900;stroke-width:20;stroke-linecap:round;stroke-linejoin:round;stroke-miterlimit:4;stroke-dasharray:none"
     d="m 14.327497,385.98329 c -3.711127,-1.62123 -6.5863106,-5.91225 -6.5863106,-9.82965 0,-4.22584 3.3018696,-8.76431 7.2332236,-9.94217 2.489603,-0.74591 354.17657,-0.74591 356.66617,0 3.93135,1.17786 7.23322,5.71633 7.23322,9.94217 0,4.188 -3.45912,8.95335 -7.26857,10.01332 -1.02073,0.28402 -65.15929,0.43748 -178.75258,0.42769 -145.071755,-0.0125 -177.407784,-0.12324 -178.525153,-0.61136 z"
     id="path882" /></g></svg>
