<?xml version="1.0" encoding="UTF-8" standalone="no"?>
<svg
   xmlns:dc="http://purl.org/dc/elements/1.1/"
   xmlns:cc="http://creativecommons.org/ns#"
   xmlns:rdf="http://www.w3.org/1999/02/22-rdf-syntax-ns#"
   xmlns:svg="http://www.w3.org/2000/svg"
   xmlns="http://www.w3.org/2000/svg"
   xmlns:sodipodi="http://sodipodi.sourceforge.net/DTD/sodipodi-0.dtd"
   xmlns:inkscape="http://www.inkscape.org/namespaces/inkscape"
   inkscape:version="1.0 (4035a4fb49, 2020-05-01)"
   sodipodi:docname="eliminar.svg"
   id="svg10"
   version="1.1"
   width="365.65054pt"
   viewBox="-40 0 365.65054 445.94308"
   height="445.94171pt">
  <metadata
     id="metadata16">
    <rdf:RDF>
      <cc:Work
         rdf:about="">
        <dc:format>image/svg+xml</dc:format>
        <dc:type
           rdf:resource="http://purl.org/dc/dcmitype/StillImage" />
        <dc:title></dc:title>
      </cc:Work>
    </rdf:RDF>
  </metadata>
  <defs
     id="defs14" />
  <sodipodi:namedview
     fit-margin-bottom="2"
     fit-margin-right="2"
     fit-margin-left="2"
     lock-margins="true"
     fit-margin-top="2"
     inkscape:current-layer="svg10"
     inkscape:window-maximized="1"
     inkscape:window-y="-8"
     inkscape:window-x="1912"
     inkscape:cy="270.52541"
     inkscape:cx="244.15149"
     inkscape:zoom="1.4929742"
     showgrid="false"
     id="namedview12"
     inkscape:window-height="1017"
     inkscape:window-width="1920"
     inkscape:pageshadow="2"
     inkscape:pageopacity="0"
     guidetolerance="10"
     gridtolerance="10"
     objecttolerance="10"
     borderopacity="1"
     bordercolor="#666666"
     pagecolor="#ffffff" />
  <path
     id="path2"
     d="m 202.01196,164.19132 c -5.52344,0 -10,4.47657 -10,10 v 189 c 0,5.51954 4.47656,10 10,10 5.52343,0 10,-4.48046 10,-10 v -189 c 0,-5.52343 -4.47657,-10 -10,-10 z m 0,0" />
  <path
     id="path4"
     d="m 84.011962,164.19132 c -5.52344,0 -10,4.47657 -10,10 v 189 c 0,5.51954 4.47656,10 10,10 5.52344,0 10,-4.48046 10,-10 v -189 c 0,-5.52343 -4.47656,-10 -10,-10 z m 0,0" />
  <path
     id="path6"
     d="M -1.9880397,136.60929 V 382.9882 c 0,14.5625 5.339843,28.23828 14.6679677,38.05078 9.285156,9.83984 22.207032,15.42578 35.730469,15.44922 H 237.61352 c 13.52734,-0.0234 26.44922,-5.60938 35.73047,-15.44922 9.32812,-9.8125 14.66797,-23.48828 14.66797,-38.05078 V 136.60929 c 18.54297,-4.92187 30.55859,-22.83593 28.07812,-41.863274 -2.48437,-19.023437 -18.6914,-33.253906 -37.8789,-33.257812 h -51.19922 v -12.5 C 227.07055,38.476485 222.9143,28.382735 215.47289,20.956954 208.03149,13.535079 197.92211,9.402267 187.41039,9.4882045 H 98.613522 C 88.101802,9.402267 77.992432,13.535079 70.551022,20.956954 63.109616,28.382735 58.953366,38.476485 59.01196,48.988204 v 12.5 H 7.8127413 c -19.1875003,0.0039 -35.3945313,14.234375 -37.8789073,33.257812 -2.480468,19.027344 9.535157,36.941404 28.0781263,41.863274 z M 237.61352,416.4882 H 48.410397 c -17.097656,0 -30.398437,-14.6875 -30.398437,-33.5 v -245.5 h 250 v 245.5 c 0,18.8125 -13.30078,33.5 -30.39844,33.5 z M 79.011962,48.988204 c -0.0664,-5.207031 1.98047,-10.21875 5.67578,-13.894531 3.69141,-3.675781 8.71484,-5.695313 13.92578,-5.605469 h 88.796868 c 5.21094,-0.08984 10.23438,1.929688 13.92579,5.605469 3.69531,3.671875 5.74218,8.6875 5.67578,13.894531 v 12.5 H 79.011962 Z m -71.1992207,32.5 H 278.21118 c 9.9414,0 18,8.058594 18,18 0,9.941406 -8.0586,17.999996 -18,17.999996 H 7.8127413 c -9.941407,0 -18.0000003,-8.05859 -18.0000003,-17.999996 0,-9.941406 8.0585933,-18 18.0000003,-18 z m 0,0" />
  <path
     id="path8"
     d="m 143.01196,164.19132 c -5.52344,0 -10,4.47657 -10,10 v 189 c 0,5.51954 4.47656,10 10,10 5.52343,0 10,-4.48046 10,-10 v -189 c 0,-5.52343 -4.47657,-10 -10,-10 z m 0,0" />
  <g
     transform="translate(-30.386478,9.4882045)"
     style="stroke-width:18.00005586;stroke-miterlimit:4;stroke-dasharray:none"
     id="g853">
    <path
       style="fill:#ff9900;stroke:#ff9900;stroke-width:23.99999992;stroke-linecap:round;stroke-linejoin:round;stroke-miterlimit:4;stroke-dasharray:none"
       d="m 147.46853,568.58271 c -5.83911,-0.97097 -15.82027,-4.5712 -21.24746,-7.66403 -16.43519,-9.36599 -27.397975,-24.12401 -33.019398,-44.45045 L 91.428235,510.05569 91.250657,339.90579 91.073079,169.7559 86.044201,167.88575 C 64.780014,159.978 50.645632,136.74797 53.586658,114.54137 55.19378,102.4066 59.838119,92.85686 68.259982,84.369929 76.387879,76.179238 86.174106,71.27123 97.52611,69.692308 c 2.9929,-0.41627 19.22225,-0.702504 39.83216,-0.702504 h 34.78134 v -8.993887 c 0,-21.349006 4.1185,-32.815348 16.01607,-44.590427 5.99663,-5.9348979 10.60303,-9.0506938 17.49777,-11.8356043 8.88905,-3.59044705 7.90267,-3.54608529 79.01322,-3.55356278 63.94616,-0.00672416 66.15082,0.03479839 71.66902,1.34981658 19.06667,4.5436978 34.2784,19.7554245 38.82209,38.8220955 1.08764,4.564073 1.35769,7.977173 1.36145,17.207641 l 0.005,11.514308 38.34628,0.242898 c 37.54936,0.237847 38.45029,0.274379 43.35147,1.757987 14.32844,4.337289 26.34595,14.367616 32.47065,27.101392 3.85499,8.014869 4.72611,12.266559 4.68929,22.887149 -0.0293,8.45868 -0.2141,9.90215 -1.88634,14.73568 -5.21775,15.08178 -16.63373,27.1874 -30.38652,32.22217 l -4.84341,1.77313 -0.21279,169.20784 c -0.23346,185.64319 0.0868,171.33739 -4.11552,183.85581 -8.0024,23.83871 -27.42514,41.06732 -51.43128,45.6212 -4.69664,0.89094 -21.96018,1.00813 -138.41543,0.93959 -73.82634,-0.0435 -134.63962,-0.34271 -136.62178,-0.67232 z m 271.35106,-27.02805 c 7.40267,-1.56861 12.82806,-4.64215 18.97189,-10.74777 6.15277,-6.11451 9.37065,-11.85096 11.6524,-20.77251 1.31483,-5.14093 1.33416,-7.63635 1.33416,-172.22544 V 170.8 H 284.32272 117.86739 l 0.19135,167.61843 c 0.17749,155.47224 0.27405,167.91917 1.33248,171.76867 4.48204,16.30107 16.12254,28.14876 30.7846,31.33254 6.45931,1.40259 262.03257,1.43592 268.64377,0.035 z m 54.93059,-399.44863 c 4.72709,-1.90767 10.23818,-7.10129 12.55225,-11.82917 1.42083,-2.90289 1.63989,-4.28589 1.64446,-10.38196 0.005,-6.40467 -0.16133,-7.34912 -1.85957,-10.57228 -2.37295,-4.50372 -6.1674,-8.29816 -10.67111,-10.671119 l -3.53935,-1.864834 H 284.66667 97.456471 l -3.122861,1.538392 c -5.007542,2.466821 -8.985091,6.428961 -11.420761,11.376501 -1.972763,4.00726 -2.19997,5.06479 -2.186975,10.17926 0.01222,4.81133 0.306755,6.33838 1.875953,9.72624 3.223501,6.95945 9.776022,12.31635 16.766968,13.70754 1.526965,0.30386 85.513835,0.50879 186.637475,0.45541 l 183.86118,-0.0971 z M 369.56832,57.770588 c -0.33644,-12.644645 -0.95454,-15.161191 -5.05874,-20.59647 -1.39088,-1.841961 -4.17576,-4.473459 -6.18864,-5.847774 -6.93066,-4.731996 -4.44721,-4.588285 -75.74393,-4.383122 l -63.88603,0.183837 -4.35373,2.089625 c -5.25461,2.522018 -9.84955,7.010072 -12.46241,12.172513 -1.88254,3.719514 -1.94073,4.143087 -2.15823,15.711587 l -0.22353,11.88902 h 85.18688 85.18688 z"
       id="path841"
       transform="matrix(0.75000233,0,0,0.75000233,-40.000655,0)" />
    <path
       style="fill:#ff9900;stroke:#ff9900;stroke-width:23.99999992;stroke-linecap:round;stroke-linejoin:round;stroke-miterlimit:4;stroke-dasharray:none"
       d="m 199.53947,483.37898 c -1.93875,-1.02392 -3.64174,-2.67269 -4.96143,-4.80347 l -2.00941,-3.2444 -0.17421,-128.91492 -0.1742,-128.91492 1.62186,-3.5426 c 2.41057,-5.26538 5.83402,-7.32416 12.17899,-7.32416 4.40304,0 5.07263,0.186 7.37342,2.04818 3.70121,2.99564 4.87545,4.87868 5.63899,9.04279 0.4523,2.46668 0.62272,46.43169 0.505,130.27687 -0.19179,136.59226 0.0369,128.48414 -3.73678,132.47585 -4.35077,4.60213 -10.84679,5.76086 -16.26223,2.90078 z"
       id="path843"
       transform="matrix(0.75000233,0,0,0.75000233,-40.000655,0)" />
    <path
       style="fill:#ff9900;stroke:#ff9900;stroke-width:23.99999992;stroke-linecap:round;stroke-linejoin:round;stroke-miterlimit:4;stroke-dasharray:none"
       d="m 278.97333,483.82507 c -2.94463,-1.55237 -4.98782,-3.58671 -6.43334,-6.40549 -1.24823,-2.43405 -1.27524,-5.67285 -1.10698,-132.72651 l 0.17248,-130.23156 2.07309,-2.57389 c 6.12032,-7.59884 16.54602,-7.41819 22.03985,0.38189 l 2.00941,2.85295 v 130.49636 130.49637 l -2.00941,2.85295 c -3.7442,5.31596 -11.56917,7.58561 -16.7451,4.85693 z"
       id="path845"
       transform="matrix(0.75000233,0,0,0.75000233,-40.000655,0)" />
    <path
       style="fill:#ff9900;stroke:#ff9900;stroke-width:23.99999992;stroke-linecap:round;stroke-linejoin:round;stroke-miterlimit:4;stroke-dasharray:none"
       d="m 357.14194,483.51257 c -3.37236,-1.66929 -5.73053,-4.54362 -6.79859,-8.28669 -0.56394,-1.97635 -0.71285,-36.32902 -0.56765,-130.94666 l 0.19685,-128.26746 1.39926,-2.67921 c 2.17108,-4.15706 6.13168,-6.58934 11.17334,-6.86178 4.92221,-0.26598 8.11232,1.23973 11.47667,5.41689 l 2.07308,2.57394 v 131.15722 131.15723 l -2.07308,2.57394 c -4.41835,5.4858 -10.95176,7.09694 -16.87988,4.16258 z"
       id="path847"
       transform="matrix(0.75000233,0,0,0.75000233,-40.000655,0)" />
  </g>
</svg>
