<?xml version="1.0" encoding="UTF-8" standalone="no"?>
<svg
   xmlns:dc="http://purl.org/dc/elements/1.1/"
   xmlns:cc="http://creativecommons.org/ns#"
   xmlns:rdf="http://www.w3.org/1999/02/22-rdf-syntax-ns#"
   xmlns:svg="http://www.w3.org/2000/svg"
   xmlns="http://www.w3.org/2000/svg"
   xmlns:sodipodi="http://sodipodi.sourceforge.net/DTD/sodipodi-0.dtd"
   xmlns:inkscape="http://www.inkscape.org/namespaces/inkscape"
   inkscape:version="1.0 (4035a4fb49, 2020-05-01)"
   height="583.62048"
   width="581.62897"
   sodipodi:docname="lupa.svg"
   xml:space="preserve"
   viewBox="0 0 581.62893 583.62045"
   y="0px"
   x="0px"
   id="Capa_1"
   version="1.1"><metadata
   id="metadata43"><rdf:RDF><cc:Work
       rdf:about=""><dc:format>image/svg+xml</dc:format><dc:type
         rdf:resource="http://purl.org/dc/dcmitype/StillImage" /><dc:title></dc:title></cc:Work></rdf:RDF></metadata><defs
   id="defs41" /><sodipodi:namedview
   inkscape:current-layer="Capa_1"
   inkscape:window-maximized="1"
   inkscape:window-y="-8"
   inkscape:window-x="-8"
   inkscape:cy="291.7795"
   inkscape:cx="290.81076"
   inkscape:zoom="1.6560161"
   fit-margin-bottom="10"
   fit-margin-right="10"
   fit-margin-left="10"
   lock-margins="true"
   fit-margin-top="10"
   showgrid="false"
   id="namedview39"
   inkscape:window-height="1017"
   inkscape:window-width="1920"
   inkscape:pageshadow="2"
   inkscape:pageopacity="0"
   guidetolerance="10"
   gridtolerance="10"
   objecttolerance="10"
   borderopacity="1"
   bordercolor="#666666"
   pagecolor="#ffffff" />
<g
   transform="translate(34.170749,35.139488)"
   id="g6">
	<g
   id="g4">
		<path
   id="path2"
   d="M 495.04,404.48 410.56,320 c 15.36,-30.72 25.6,-66.56 25.6,-102.4 C 436.16,97.28 338.88,0 218.56,0 98.24,0 0.96,97.28 0.96,217.6 c 0,120.32 97.28,217.6 217.6,217.6 35.84,0 71.68,-10.24 102.4,-25.6 l 84.48,84.48 c 25.6,25.6 64,25.6 89.6,0 23.04,-25.6 23.04,-64 0,-89.6 z M 218.56,384 c -92.16,0 -166.4,-74.24 -166.4,-166.4 0,-92.16 74.24,-166.4 166.4,-166.4 92.16,0 166.4,74.24 166.4,166.4 0,92.16 -74.24,166.4 -166.4,166.4 z" />
	</g>
</g>
<g
   transform="translate(34.170749,35.139488)"
   id="g8">
</g>
<g
   transform="translate(34.170749,35.139488)"
   id="g10">
</g>
<g
   transform="translate(34.170749,35.139488)"
   id="g12">
</g>
<g
   transform="translate(34.170749,35.139488)"
   id="g14">
</g>
<g
   transform="translate(34.170749,35.139488)"
   id="g16">
</g>
<g
   transform="translate(34.170749,35.139488)"
   id="g18">
</g>
<g
   transform="translate(34.170749,35.139488)"
   id="g20">
</g>
<g
   transform="translate(34.170749,35.139488)"
   id="g22">
</g>
<g
   transform="translate(34.170749,35.139488)"
   id="g24">
</g>
<g
   transform="translate(34.170749,35.139488)"
   id="g26">
</g>
<g
   transform="translate(34.170749,35.139488)"
   id="g28">
</g>
<g
   transform="translate(34.170749,35.139488)"
   id="g30">
</g>
<g
   transform="translate(34.170749,35.139488)"
   id="g32">
</g>
<g
   transform="translate(34.170749,35.139488)"
   id="g34">
</g>
<g
   transform="translate(34.170749,35.139488)"
   id="g36">
</g>
<path
   id="path868"
   d="m 476.19542,548.05689 c -11.75567,-2.15558 -20.89055,-6.07353 -29.89101,-12.82024 -1.99273,-1.49375 -23.35303,-22.39338 -47.46732,-46.44363 l -43.84417,-43.72772 -6.61927,3.02397 c -24.42269,11.15735 -47.39763,17.82798 -72.35744,21.0085 -11.67634,1.48787 -35.84443,1.48977 -48.00678,0.004 C 177.79585,462.96647 133.95909,441.74648 98.762536,406.53719 62.597771,370.35936 41.284597,325.11405 35.886949,273.05988 34.205898,256.84805 35.299605,231.33102 38.41285,214.12865 50.729117,146.07461 94.456974,88.054828 156.45216,57.509621 c 21.94239,-10.811078 44.12119,-17.504089 69.44377,-20.9564 11.25569,-1.534527 42.57286,-1.527803 53.74344,0.01154 34.6829,4.779412 64.66601,15.800656 92.08847,33.850051 56.06409,36.901238 91.37749,95.444918 97.83052,162.186528 0.96049,9.93407 0.82631,31.38755 -0.25683,41.0624 -2.83824,25.35181 -10.34865,51.68389 -21.45968,75.23927 l -2.89425,6.1358 42.23294,42.1921 c 23.33103,23.30845 43.82989,44.29386 45.80102,46.88814 7.15629,9.41861 11.97166,21.71214 13.28588,33.91857 1.7098,15.88056 -3.3021,33.45395 -13.34035,46.77572 -7.61617,10.10742 -20.27462,18.34101 -33.62648,21.87208 -4.55983,1.2059 -19.25206,2.078 -23.10519,1.37147 z M 271.48727,417.91997 c 36.48329,-3.93198 71.4082,-20.58128 97.74371,-46.59609 27.80965,-27.471 44.21896,-61.37185 48.73268,-100.67944 1.22279,-10.64859 0.90227,-31.76466 -0.63244,-41.66626 -6.85615,-44.23425 -29.44084,-82.65574 -63.88822,-108.68782 -22.87465,-17.2865 -48.94935,-28.030835 -78.63451,-32.402122 -11.1078,-1.635679 -34.5275,-1.477689 -46.13069,0.311199 -36.36328,5.606202 -67.8801,21.415383 -93.40967,46.855333 -25.5215,25.4319 -41.366834,56.98331 -47.168984,93.92341 -1.541293,9.81284 -1.543878,37.78482 -0.0044,47.40292 3.35344,20.95084 9.501257,39.40617 18.707574,56.15888 32.67007,59.44961 96.79816,92.69646 164.68496,85.37999 z"
   style="fill:#ff9900;stroke:#ff9900;stroke-width:60;stroke-linecap:round;stroke-linejoin:round;stroke-miterlimit:4;stroke-dasharray:none;stroke-opacity:1" /></svg>
