<?xml version="1.0" encoding="UTF-8" standalone="no"?>
<svg
   xmlns:dc="http://purl.org/dc/elements/1.1/"
   xmlns:cc="http://creativecommons.org/ns#"
   xmlns:rdf="http://www.w3.org/1999/02/22-rdf-syntax-ns#"
   xmlns:svg="http://www.w3.org/2000/svg"
   xmlns="http://www.w3.org/2000/svg"
   xmlns:sodipodi="http://sodipodi.sourceforge.net/DTD/sodipodi-0.dtd"
   xmlns:inkscape="http://www.inkscape.org/namespaces/inkscape"
   inkscape:version="1.0 (4035a4fb49, 2020-05-01)"
   height="318.62833"
   width="531.81604"
   sodipodi:docname="ojo.svg"
   xml:space="preserve"
   viewBox="0 0 531.81603 318.62832"
   y="0px"
   x="0px"
   id="Capa_1"
   version="1.1"><metadata
   id="metadata49"><rdf:RDF><cc:Work
       rdf:about=""><dc:format>image/svg+xml</dc:format><dc:type
         rdf:resource="http://purl.org/dc/dcmitype/StillImage" /><dc:title></dc:title></cc:Work></rdf:RDF></metadata><defs
   id="defs47" /><sodipodi:namedview
   inkscape:current-layer="Capa_1"
   inkscape:window-maximized="1"
   inkscape:window-y="-8"
   inkscape:window-x="-8"
   inkscape:cy="159.28316"
   inkscape:cx="265.91334"
   inkscape:zoom="1.6601822"
   fit-margin-bottom="5"
   fit-margin-right="5"
   fit-margin-left="5"
   lock-margins="true"
   fit-margin-top="5"
   showgrid="false"
   id="namedview45"
   inkscape:window-height="1017"
   inkscape:window-width="1920"
   inkscape:pageshadow="2"
   inkscape:pageopacity="0"
   guidetolerance="10"
   gridtolerance="10"
   objecttolerance="10"
   borderopacity="1"
   bordercolor="#666666"
   pagecolor="#ffffff" />
<g
   transform="translate(9.9173342,-96.712844)"
   id="g6">
	<g
   id="g4">
		<path
   id="path2"
   d="M 510.096,249.937 C 506.064,244.07 409.168,106.662 255.995,106.662 124.56,106.662 7.44,243.281 2.512,249.105 c -3.349,3.968 -3.349,9.792 0,13.781 4.928,5.824 122.048,142.443 253.483,142.443 131.435,0 248.554,-136.619 253.482,-142.443 3.094,-3.669 3.371,-8.981 0.619,-12.949 z M 255.995,383.996 c -105.365,0 -205.547,-100.48 -230.997,-128 25.408,-27.541 125.483,-128 230.997,-128 123.285,0 210.304,100.331 231.552,127.424 -24.534,26.645 -125.291,128.576 -231.552,128.576 z" />
	</g>
</g>
<g
   transform="translate(9.9173342,-96.712844)"
   id="g12">
	<g
   id="g10">
		<path
   id="path8"
   d="m 255.995,170.662 c -47.061,0 -85.333,38.272 -85.333,85.333 0,47.061 38.272,85.333 85.333,85.333 47.061,0 85.333,-38.272 85.333,-85.333 0,-47.061 -38.272,-85.333 -85.333,-85.333 z m 0,149.334 c -35.285,0 -64,-28.715 -64,-64 0,-35.285 28.715,-64 64,-64 35.285,0 64,28.715 64,64 0,35.285 -28.715,64 -64,64 z" />
	</g>
</g>
<g
   transform="translate(9.9173342,-96.712844)"
   id="g14">
</g>
<g
   transform="translate(9.9173342,-96.712844)"
   id="g16">
</g>
<g
   transform="translate(9.9173342,-96.712844)"
   id="g18">
</g>
<g
   transform="translate(9.9173342,-96.712844)"
   id="g20">
</g>
<g
   transform="translate(9.9173342,-96.712844)"
   id="g22">
</g>
<g
   transform="translate(9.9173342,-96.712844)"
   id="g24">
</g>
<g
   transform="translate(9.9173342,-96.712844)"
   id="g26">
</g>
<g
   transform="translate(9.9173342,-96.712844)"
   id="g28">
</g>
<g
   transform="translate(9.9173342,-96.712844)"
   id="g30">
</g>
<g
   transform="translate(9.9173342,-96.712844)"
   id="g32">
</g>
<g
   transform="translate(9.9173342,-96.712844)"
   id="g34">
</g>
<g
   transform="translate(9.9173342,-96.712844)"
   id="g36">
</g>
<g
   transform="translate(9.9173342,-96.712844)"
   id="g38">
</g>
<g
   transform="translate(9.9173342,-96.712844)"
   id="g40">
</g>
<g
   transform="translate(9.9173342,-96.712844)"
   id="g42">
</g>
<g
   transform="translate(175.61992,68.989746)"
   id="g882"><path
     style="fill:#000000;stroke:#000000;stroke-width:10;stroke-linecap:round;stroke-linejoin:round;stroke-miterlimit:4;stroke-dasharray:none;stroke-opacity:1"
     d="m 70.114899,238.69882 c -57.36133,-6.16672 -118.67746,-36.51214 -180.388369,-89.27442 -14.86858,-12.7125 -39.02643,-36.21111 -49.64354,-48.2888 -5.07656,-5.774951 -5.99623,-7.691591 -5.65648,-11.788461 0.3393,-4.0915 2.07372,-6.37066 15.40831,-20.24768 54.696947,-56.92193 114.209169,-97.4465 170.586739,-116.16023 27.23304,-9.03962 49.74633,-12.53019 76.41019,-11.847 39.867831,1.0215 75.326261,10.08174 113.629201,29.03421 26.49814,13.11141 48.73417,27.9530196 73.66525,49.16844 11.9464,10.16594 32.47832,30.62465 42.53889,42.38721 8.72175,10.19726 18.20431,22.55927 19.11976,24.92563 0.33565,0.86762 0.49793,2.98237 0.36062,4.69945 -0.31961,3.99681 -1.9845,6.18499 -15.35235,20.177641 -64.71219,67.73676 -138.27347,112.79336 -203.75675,124.80189 -18.14875,3.32817 -39.847471,4.24768 -56.921471,2.41212 z m 35.926211,-21.33158 c 16.26392,-1.62434 30.3167,-4.68404 46.89603,-10.2106 52.64337,-17.54821 110.13068,-56.79316 162.56545,-110.978831 l 6.25479,-6.46364 -2.34081,-2.87172 c -11.04278,-13.54735 -29.96894,-33.3812 -42.69783,-44.7456 -44.83779,-40.0313304 -93.05592,-65.61922 -141.85191,-75.27649 -17.95765,-3.55402 -43.264401,-5.12179 -59.465931,-3.68396 -64.887,5.75854 -139.98891,48.93694 -209.447469,120.41783 l -6.5928,6.78474 6.5928,6.63486 c 19.75226,19.878281 28.21132,27.749801 43.335749,40.325791 54.06981,44.95915 107.71172,72.12283 155.7058,78.84772 4.80369,0.67309 9.8182,1.31753 11.14336,1.4321 5.68898,0.49182 24.166591,0.3607 29.902771,-0.2122 z"
     id="path876" /><path
     style="fill:#000000;stroke:#000000;stroke-width:6.02344;stroke-linecap:round;stroke-linejoin:round;stroke-miterlimit:4;stroke-dasharray:none;stroke-opacity:1"
     d="m 80.420269,175.22937 c -19.37911,-2.45005 -36.58297,-10.8764 -50.38469,-24.67812 -12.16842,-12.16842 -19.91465,-26.49243 -23.5674304,-43.5799 -1.87613,-8.776441 -1.87613,-24.579441 0,-33.355871 3.6726704,-17.18051 11.3111004,-31.28943 23.5845004,-43.56283 12.2734,-12.2734 26.38232,-19.91183 43.56283,-23.5845004 8.77643,-1.87613 24.57943,-1.87613 33.355871,0 17.08747,3.6527804 31.41148,11.3990104 43.5799,23.5674304 12.16841,12.16842 19.91465,26.49243 23.56742,43.5799 1.87613,8.77643 1.87613,24.57943 0,33.355871 -3.65277,17.08747 -11.39901,31.41148 -23.56742,43.5799 -12.21114,12.21113 -26.81414,20.08952 -43.56385,23.50289 -6.93471,1.4132 -20.084001,1.99488 -26.567131,1.17523 z m 25.605681,-23.10276 c 22.39966,-5.75812 40.104,-23.43988 46.15955,-46.10066 1.36615,-5.11234 1.54828,-6.962951 1.54828,-15.732541 0,-8.76958 -0.18213,-10.6202 -1.54828,-15.73254 -6.05652,-22.66438 -23.49516,-40.10303 -46.15955,-46.15954 -5.11234,-1.36616 -6.962951,-1.54828 -15.732541,-1.54828 -8.79083,0 -10.61386,0.18035 -15.7849,1.56156 -11.13772,2.97494 -19.98107,8.00377 -28.56246,16.24225 -8.53734,8.19619 -14.4249,18.22123 -17.53144,29.85165 -1.38121,5.17104 -1.56156,6.99407 -1.56156,15.7849 0,8.76959 0.18212,10.620201 1.54828,15.732541 6.66543,24.94305 27.20574,43.48607 52.60681,47.49149 6.17621,0.9739 18.47957,0.28992 25.017811,-1.39083 z"
     id="path878" /></g></svg>
