<?xml version="1.0" encoding="UTF-8" standalone="no"?>
<svg
   xmlns:dc="http://purl.org/dc/elements/1.1/"
   xmlns:cc="http://creativecommons.org/ns#"
   xmlns:rdf="http://www.w3.org/1999/02/22-rdf-syntax-ns#"
   xmlns:svg="http://www.w3.org/2000/svg"
   xmlns="http://www.w3.org/2000/svg"
   xmlns:sodipodi="http://sodipodi.sourceforge.net/DTD/sodipodi-0.dtd"
   xmlns:inkscape="http://www.inkscape.org/namespaces/inkscape"
   height="522.11407"
   width="434.76245"
   inkscape:version="1.0 (4035a4fb49, 2020-05-01)"
   sodipodi:docname="user.svg"
   id="svg6"
   version="1.1"
   viewBox="-42 0 434.76245 522.1141">
  <metadata
     id="metadata12">
    <rdf:RDF>
      <cc:Work
         rdf:about="">
        <dc:format>image/svg+xml</dc:format>
        <dc:type
           rdf:resource="http://purl.org/dc/dcmitype/StillImage" />
        <dc:title></dc:title>
      </cc:Work>
    </rdf:RDF>
  </metadata>
  <defs
     id="defs10" />
  <sodipodi:namedview
     fit-margin-bottom="0.2"
     fit-margin-right="0.2"
     fit-margin-left="0.2"
     lock-margins="true"
     fit-margin-top="0.2"
     inkscape:current-layer="svg6"
     inkscape:window-maximized="1"
     inkscape:window-y="-8"
     inkscape:window-x="-8"
     inkscape:cy="358.73753"
     inkscape:cx="217.695"
     inkscape:zoom="1.6601531"
     showgrid="false"
     id="namedview8"
     inkscape:window-height="1017"
     inkscape:window-width="1920"
     inkscape:pageshadow="2"
     inkscape:pageopacity="0"
     guidetolerance="10"
     gridtolerance="10"
     objecttolerance="10"
     borderopacity="1"
     bordercolor="#666666"
     pagecolor="#ffffff" />
  <path
     id="path2"
     d="m 172.04656,252.99319 c 33.88281,0 63.21875,-12.15234 87.19531,-36.1289 23.96875,-23.97266 36.125,-53.30469 36.125,-87.19141 0,-33.87499 -12.15234,-63.21093 -36.1289,-87.1914 -23.97656,-23.96875 -53.3125,-36.1210908 -87.19141,-36.1210908 -33.88672,0 -63.21875,12.1523408 -87.191404,36.1250008 -23.97266,23.97266 -36.12891,53.30859 -36.12891,87.18749 0,33.88672 12.15625,63.22266 36.12891,87.19531 23.980464,23.96875 53.316404,36.125 87.191404,36.125 z M 106.07391,63.70023 C 124.46844,45.3057 146.04656,36.3643 172.04656,36.3643 c 25.9961,0 47.57813,8.9414 65.97656,27.33593 18.39454,18.39844 27.33985,39.98046 27.33985,65.97265 0,26 -8.94531,47.57812 -27.33985,65.97656 -18.39843,18.39844 -39.98046,27.33985 -65.97656,27.33985 -25.99219,0 -47.57031,-8.94532 -65.97265,-27.33985 -18.398444,-18.39453 -27.343754,-39.97656 -27.343754,-65.97656 0,-25.99219 8.94531,-47.57421 27.343754,-65.97265 z m 0,0" />
  <path
     id="path4"
     d="m 387.82391,400.0635 c -0.69141,-9.97656 -2.08985,-20.85937 -4.14844,-32.35156 -2.07813,-11.57812 -4.75391,-22.52344 -7.95703,-32.52734 -3.3125,-10.33985 -7.8086,-20.55078 -13.375,-30.33594 -5.76953,-10.15625 -12.55078,-19 -20.16016,-26.27734 -7.95703,-7.61328 -17.69922,-13.73438 -28.96484,-18.19922 -11.22657,-4.44141 -23.66797,-6.69141 -36.97657,-6.69141 -5.22656,0 -10.28125,2.14453 -20.04296,8.5 -6.00782,3.91797 -13.03516,8.44922 -20.87891,13.46094 -6.70703,4.27344 -15.79297,8.27734 -27.01563,11.90234 -10.94921,3.54297 -22.0664,5.33985 -33.04296,5.33985 -10.96875,0 -22.08594,-1.79688 -33.04297,-5.33985 -11.21094,-3.62109 -20.30078,-7.625 -26.9961,-11.89843 -7.76953,-4.96485 -14.80078,-9.4961 -20.898434,-13.46875 -9.75391,-6.35547 -14.8086,-8.5 -20.03516,-8.5 -13.3125,0 -25.75,2.2539 -36.972656,6.69921 -11.257813,4.45704 -21.003906,10.57813 -28.9687508,18.19922 -7.60937506,7.28125 -14.390625,16.1211 -20.1562492,26.27344 -5.558594,9.78516 -10.058594,19.99219 -13.371094,30.33984 -3.199219,10.00391 -5.875,20.94532 -7.953125,32.52344 -2.0625,11.47656 -3.457031,22.36328 -4.148437,32.36328 -0.679688,9.77735 -1.023438,19.95313 -1.023438,30.23438 0,26.72656 8.496094,48.36328 25.25,64.32031 16.5468742,15.74609 38.4375,23.73047 65.066406,23.73047 H 298.54266 c 26.62109,0 48.51171,-7.98438 65.0625,-23.73047 16.75781,-15.94531 25.2539,-37.58984 25.2539,-64.32422 -0.004,-10.3164 -0.35156,-20.49218 -1.03515,-30.24219 z m -44.90625,72.82813 c -10.9336,10.40625 -25.44922,15.46484 -44.37891,15.46484 H 52.011402 c -18.933594,0 -33.449218,-5.05859 -44.3789068,-15.46093 -10.722656,-10.20704 -15.933594,-24.14063 -15.933594,-42.58594 0,-9.59375 0.316406,-19.06641 0.949219,-28.16016 0.617187,-8.92187 1.878906,-18.72265 3.75,-29.13672 1.847656,-10.28515 4.19921894,-19.9375 6.996094,-28.67578 2.683593,-8.3789 6.34375,-16.67578 10.8828128,-24.66797 4.332031,-7.61718 9.316407,-14.15234 14.816407,-19.41797 5.144531,-4.92578 11.628906,-8.95703 19.269531,-11.98046 7.066406,-2.79688 15.007811,-4.32813 23.628911,-4.5586 1.05078,0.5586 2.92187,1.625 5.95312,3.60156 6.16797,4.01954 13.27734,8.60547 21.13672,13.625 8.859374,5.64844 20.273444,10.75 33.910154,15.15235 13.94141,4.50781 28.16016,6.79687 42.27344,6.79687 14.11328,0 28.33594,-2.28906 42.26953,-6.79297 13.64844,-4.41015 25.0586,-9.50781 33.92969,-15.16406 8.04297,-5.14062 14.95313,-9.59375 21.12109,-13.61719 3.03125,-1.97265 4.90235,-3.04296 5.95313,-3.60156 8.625,0.23047 16.56641,1.76172 23.63672,4.5586 7.63672,3.02343 14.12109,7.05859 19.26562,11.98046 5.5,5.26172 10.48438,11.79688 14.81641,19.42188 4.54297,7.98828 8.20703,16.28906 10.88672,24.66016 2.80078,8.75 5.15625,18.39843 7,28.67578 1.86719,10.43359 3.13281,20.23828 3.75,29.14453 v 0.008 c 0.63672,9.0586 0.95703,18.52735 0.96094,28.14844 -0.004,18.44922 -5.21485,32.37891 -15.9375,42.58203 z m 0,0" />
  <g
     transform="translate(-4.3181227e-7,249.6933)"
     id="g843">
    <path
       style="fill:#000000;fill-opacity:1;stroke:#000000;stroke-width:12.018;stroke-linecap:round;stroke-linejoin:round;stroke-miterlimit:4;stroke-dasharray:none;stroke-opacity:1"
       d="m 163.64792,3.25561 c -31.75503,-2.27890003 -59.63839,-15.56908 -81.601064,-38.89392 -23.23633,-24.67748 -34.5823,-55.06153 -33.24577,-89.03085 0.64745,-16.4556 3.52135,-29.83345 9.38767,-43.69916 11.37173,-26.87834 34.6857,-51.04306 61.452284,-63.69473 32.63195,-15.42403 74.15538,-15.12539 106.35053,0.76489 29.37192,14.49684 53.31978,41.72661 63.2576,71.92667 10.00704,30.41044 7.89433,64.71377 -5.71919,92.86068 -8.35226,17.26886 -21.9321,33.58638 -38.11082,45.79388 -16.35945,12.34388 -34.37496,19.85534997 -54.66531,22.79242 -6.56517,0.95032 -21.34288,1.59371 -27.10593,1.18012 z m 28.61182,-32.11194 c 8.59637,-1.98334 14.5381,-4.13314 22.02017,-7.96717 24.47262,-12.54051 43.55143,-37.00539 48.74924,-62.51149 4.36382,-21.41364 1.7299,-44.27521 -7.13159,-61.89984 -7.63671,-15.18866 -22.36672,-30.91095 -37.17635,-39.68074 -14.23697,-8.43066 -27.95588,-11.94232 -46.64033,-11.93862 -16.50686,0.003 -28.03672,2.51499 -41.25237,8.98658 -13.4213,6.5723 -28.12778,19.63256 -36.824844,32.70271 -10.30047,15.4798 -14.87461,31.15687 -14.88433,51.01339 -0.009,19.31281 4.24991,34.76357 13.54758,49.1437 14.914464,23.06727 36.844194,38.06019 62.516274,42.74111 8.82165,1.6085 28.9357,1.28862 37.07655,-0.58963 z"
       id="path837" />
    <path
       style="fill:#000000;fill-opacity:1;stroke:#000000;stroke-width:7.23909;stroke-linecap:round;stroke-linejoin:round;stroke-miterlimit:4;stroke-dasharray:none;stroke-opacity:1"
       d="m 37.755906,268.01132 c -35.5639864,-4.57773 -62.386018,-25.90433 -71.904325,-57.1722 -3.16263,-10.38931 -4.058281,-18.1117 -4.031491,-34.75989 0.05265,-32.71742 4.120868,-62.26553 12.171964,-88.40689 C -18.570305,63.52284 -4.6251334,40.15066 10.017838,27.29295 25.708246,13.51551 43.736896,6.13083 66.495206,4.15938 c 12.82227,-1.11074 14.46364,-0.48401 37.218484,14.21124 14.76691,9.53659 24.42785,14.55711 34.63536,17.99905 15.66008,5.28052 24.78517,6.69013 40.35772,6.23432 13.10129,-0.38348 18.71969,-1.41256 32.29722,-5.91562 12.16058,-4.03313 20.05474,-8.09034 37.10449,-19.06991 21.58198,-13.89819 23.32967,-14.54512 36.24498,-13.41639 32.72055,2.8596 56.41967,17.21783 74.62232,45.21033 16.55638,25.46082 26.76506,63.1043 29.40351,108.4225 1.4511,24.92409 0.1258,41.59395 -4.37557,55.03701 -8.76338,26.17126 -31.11065,46.28392 -58.70917,52.83855 -12.6925,3.01446 -8.70513,2.93859 -150.80426,2.86945 -73.05049,-0.0355 -134.580964,-0.2914 -136.734384,-0.56859 z M 313.63409,237.42211 c 14.02629,-3.19115 22.98716,-7.88554 30.75184,-16.11013 11.34528,-12.01727 15.04147,-25.25614 14.19067,-50.82764 C 357.23035,130.02167 350.61466,98.12687 338.78802,75.08196 332.4442,62.72066 323.77741,51.8095 315.75603,46.08556 307.08986,39.90151 294.25737,35.31914 283.45924,34.55267 l -5.19192,-0.36853 -14.39197,9.2458 c -20.42982,13.12468 -29.40922,17.58254 -46.53102,23.1005 -14.24191,4.58985 -27.04883,6.60428 -41.95051,6.59851 -18.49011,-0.007 -33.93196,-3.01257 -52.65114,-10.24737 -11.42419,-4.41535 -18.32688,-8.09116 -33.500294,-17.83953 -7.95921,-5.11351 -15.12575,-9.64755 -15.92564,-10.07563 -3.44617,-1.84434 -17.55272,0.63302 -27.18527,4.77422 -23.31848,10.02501 -39.5648994,35.78388 -48.0795524,76.23065 -4.313537,20.4904 -5.720199,34.70994 -5.750206,58.12717 -0.02185,17.05558 0.07241,18.74798 1.315724,23.62246 5.86674497,23.00088 22.2878924,36.87627 47.5165744,40.15012 2.35538,0.30565 61.480914,0.48811 136.669224,0.42175 103.57619,-0.0914 133.24144,-0.28156 135.83085,-0.87068 z"
       id="path839" />
  </g>
</svg>
